<svg width="186" height="180" viewBox="0 0 186 180" fill="none" xmlns="http://www.w3.org/2000/svg">
<path d="M25.5771 141.566L35.2301 111.205L35.3083 110.959L35.1532 110.753C23.0695 94.6857 19.269 75.9338 24.678 58.9212C34.8712 26.8619 74.9705 10.7254 114.21 23.2014C153.449 35.6774 176.867 72.0087 166.674 104.068C156.481 136.127 116.381 152.264 77.1418 139.788C72.4985 138.312 67.9439 136.443 63.5788 134.223L63.4251 134.145L63.256 134.178L25.5771 141.566Z" fill="white" stroke="#787D7D"/>
<path d="M47.9943 59.3369L48.5964 45.7401L50.329 46.291L49.6299 58.6481L48.9546 57.98L50.9959 58.6291L49.973 58.7571L55.8261 48.6054L57.4043 49.1072L50.859 60.2477L47.9943 59.3369ZM55.5249 61.7312L56.3407 48.769L57.9703 49.2872L57.1948 61.0533L56.468 60.3689L58.5264 61.0234L57.5207 61.1569L63.7776 50.5669L65.4587 51.1014L58.4067 62.6474L55.5249 61.7312ZM63.8145 64.3668L66.7269 55.2066L68.3736 55.7302L65.4612 64.8904L63.8145 64.3668ZM64.9058 56.0631L65.3203 54.7594L68.3736 55.7302L67.9591 57.0339L64.9058 56.0631ZM67.6591 53.8787C67.2931 53.7623 67.0496 53.5779 66.9284 53.3253C66.8187 53.0763 66.8111 52.8032 66.9056 52.5058C67.0002 52.2085 67.1641 51.9899 67.3975 51.85C67.6422 51.7138 67.9476 51.7039 68.3136 51.8202C68.6795 51.9366 68.9173 52.1192 69.0271 52.3682C69.1482 52.6208 69.1615 52.8957 69.067 53.193C68.9725 53.4904 68.8028 53.7072 68.558 53.8434C68.3247 53.9833 68.025 53.995 67.6591 53.8787ZM68.7482 65.9355L72.7296 53.4132L74.3764 53.9367L70.395 66.459L68.7482 65.9355ZM71.0457 54.3133L71.4602 53.0096L74.3764 53.9367L73.9619 55.2404L71.0457 54.3133ZM74.7316 71.691L75.2007 70.2158L76.1613 70.5212C76.5959 70.6594 76.9657 70.6447 77.2708 70.4773C77.5873 70.3135 77.8128 70.02 77.9473 69.5969L81.0724 59.7678L82.6506 60.2695L79.6018 69.8585C79.3582 70.6247 79.0569 71.1963 78.6978 71.5732C78.3501 71.9537 77.911 72.1667 77.3803 72.212C76.861 72.261 76.2183 72.1637 75.4521 71.9201L74.7316 71.691ZM79.217 60.6133L79.6315 59.3096L82.6506 60.2695L82.2361 61.5732L79.217 60.6133ZM81.9797 58.2807C81.6137 58.1644 81.3702 57.9799 81.249 57.7273C81.1393 57.4784 81.1317 57.2052 81.2262 56.9079C81.3207 56.6106 81.4847 56.392 81.718 56.2521C81.9628 56.1159 82.2682 56.1059 82.6341 56.2223C83.0001 56.3386 83.2379 56.5213 83.3476 56.7702C83.4688 57.0228 83.4821 57.2978 83.3876 57.5951C83.2931 57.8924 83.1234 58.1092 82.8786 58.2455C82.6453 58.3853 82.3456 58.3971 81.9797 58.2807ZM83.347 70.5771L86.2595 61.4169L87.9062 61.9405L84.9938 71.1007L83.347 70.5771ZM84.4384 62.2734L84.8529 60.9697L87.9062 61.9405L87.4917 63.2442L84.4384 62.2734ZM87.1917 60.089C86.8257 59.9726 86.5822 59.7881 86.461 59.5356C86.3513 59.2866 86.3437 59.0135 86.4382 58.7161C86.5328 58.4188 86.6967 58.2002 86.93 58.0603C87.1748 57.9241 87.4802 57.9142 87.8461 58.0305C88.2121 58.1469 88.4499 58.3295 88.5597 58.5785C88.6808 58.831 88.6941 59.106 88.5996 59.4033C88.5051 59.7007 88.3354 59.9175 88.0906 60.0537C87.8573 60.1936 87.5576 60.2053 87.1917 60.089ZM85.4528 75.0997L85.9218 73.6245L86.8824 73.9299C87.317 74.0681 87.6868 74.0535 87.9919 73.886C88.3084 73.7222 88.5339 73.4288 88.6685 73.0056L91.7936 63.1765L93.3717 63.6783L90.323 73.2672C90.0794 74.0335 89.778 74.605 89.4189 74.9819C89.0713 75.3625 88.6321 75.5754 88.1014 75.6208C87.5822 75.6697 86.9395 75.5724 86.1733 75.3288L85.4528 75.0997ZM89.9382 64.022L90.3527 62.7184L93.3717 63.6783L92.9572 64.9819L89.9382 64.022ZM92.7008 61.6895C92.3349 61.5731 92.0913 61.3886 91.9701 61.1361C91.8604 60.8871 91.8528 60.614 91.9474 60.3166C92.0419 60.0193 92.2058 59.8007 92.4392 59.6608C92.684 59.5246 92.9893 59.5147 93.3553 59.631C93.7212 59.7474 93.9591 59.93 94.0688 60.179C94.19 60.4315 94.2033 60.7065 94.1087 61.0038C94.0142 61.3012 93.8445 61.518 93.5998 61.6542C93.3664 61.7941 93.0668 61.8058 92.7008 61.6895ZM101.647 76.7355C100.847 76.4809 100.187 76.1201 99.668 75.6529C99.1492 75.1858 98.7491 74.6619 98.4678 74.0814C98.2015 73.4931 98.0488 72.8842 98.0097 72.2547C97.982 71.6289 98.0609 71.0244 98.2463 70.4412L98.3445 70.1324C98.5299 69.5492 98.8204 69.0119 99.2158 68.5206C99.6149 68.0179 100.097 67.6108 100.662 67.2994C101.23 66.9765 101.86 66.7799 102.549 66.7095C103.243 66.6278 103.978 66.7105 104.756 66.9578C105.533 67.205 106.182 67.5622 106.701 68.0294C107.223 68.4851 107.623 69.009 107.901 69.6009C108.182 70.1815 108.34 70.7922 108.376 71.4331C108.415 72.0625 108.342 72.6688 108.157 73.2521L108.058 73.5608C107.873 74.1441 107.582 74.6813 107.187 75.1726C106.803 75.6675 106.327 76.0764 105.758 76.3993C105.205 76.7144 104.581 76.9129 103.888 76.9946C103.194 77.0764 102.448 76.99 101.647 76.7355ZM102.116 75.2602C102.802 75.4784 103.433 75.5152 104.008 75.3705C104.597 75.2181 105.1 74.9246 105.515 74.49C105.942 74.059 106.257 73.5233 106.461 72.8829C106.668 72.231 106.722 71.606 106.622 71.0077C106.523 70.4095 106.275 69.8835 105.877 69.4299C105.492 68.9798 104.961 68.6475 104.287 68.433C103.623 68.2221 102.999 68.1872 102.412 68.3282C101.826 68.4691 101.32 68.7551 100.893 69.1861C100.466 69.6171 100.149 70.1585 99.9422 70.8104C99.7386 71.4508 99.6808 72.0683 99.7687 72.6629C99.8681 73.2611 100.109 73.791 100.491 74.2525C100.888 74.7062 101.43 75.0421 102.116 75.2602ZM108.027 82.2015L112.03 69.6106L113.334 70.0251L112.074 73.9876L111.776 73.8551C112.146 72.8898 112.606 72.1548 113.157 71.6499C113.723 71.1373 114.345 70.825 115.023 70.7131C115.7 70.6013 116.382 70.6544 117.069 70.8725C117.732 71.0834 118.292 71.4001 118.75 71.8226C119.219 72.2487 119.578 72.7409 119.829 73.299C120.08 73.8572 120.217 74.455 120.241 75.0922C120.265 75.7294 120.175 76.3683 119.972 77.0087L119.874 77.3174C119.67 77.9579 119.369 78.5294 118.97 79.0321C118.57 79.5348 118.102 79.9398 117.563 80.2471C117.036 80.5581 116.458 80.7521 115.829 80.8291C115.212 80.9098 114.577 80.8466 113.925 80.6393C113.274 80.4321 112.696 80.091 112.192 79.616C111.688 79.141 111.344 78.5215 111.159 77.7575C110.973 76.9935 111.018 76.082 111.291 75.0232L111.61 76.6355L109.674 82.7251L108.027 82.2015ZM114.126 79.1166C114.744 79.3129 115.327 79.3409 115.875 79.2004C116.427 79.0485 116.911 78.7553 117.326 78.3206C117.745 77.8746 118.061 77.3142 118.276 76.6395C118.494 75.9533 118.559 75.3129 118.471 74.7183C118.383 74.1237 118.156 73.6108 117.789 73.1794C117.427 72.7366 116.936 72.4171 116.319 72.2207C115.77 72.0462 115.221 72.0102 114.672 72.1127C114.127 72.2038 113.637 72.4383 113.202 72.8163C112.782 73.1865 112.468 73.6975 112.261 74.3493L112.01 75.1384C111.81 75.7674 111.782 76.3503 111.926 76.8872C112.07 77.4241 112.339 77.8872 112.731 78.2764C113.124 78.6656 113.589 78.9457 114.126 79.1166ZM124.848 83.772L127.76 74.6118L129.064 75.0263L127.815 78.9546L127.609 78.8891C127.892 77.9971 128.247 77.2787 128.672 76.7339C129.112 76.1813 129.619 75.8137 130.194 75.6311C130.768 75.4485 131.415 75.4718 132.136 75.7009L132.204 75.7227C132.925 75.9517 133.467 76.3066 133.83 76.7873C134.205 77.2717 134.407 77.8647 134.436 78.5664C134.468 79.2567 134.342 80.0478 134.059 80.9398L133.578 80.7871C133.862 79.8951 134.222 79.1785 134.659 78.6373C135.099 78.0847 135.606 77.7171 136.18 77.5345C136.766 77.3556 137.419 77.3807 138.14 77.6097L138.208 77.6316C138.929 77.8606 139.476 78.2173 139.851 78.7017C140.226 79.186 140.428 79.7791 140.457 80.4808C140.5 81.1747 140.38 81.9676 140.097 82.8596L138.433 88.0915L136.787 87.5679L138.565 81.9758C138.801 81.2325 138.8 80.6025 138.561 80.0859C138.326 79.5578 137.883 79.1902 137.231 78.9829C136.556 78.7684 135.944 78.813 135.394 79.1167C134.848 79.4089 134.453 79.9381 134.209 80.7043L132.464 86.1935L130.817 85.67L132.595 80.0778C132.831 79.3345 132.83 78.7045 132.592 78.1879C132.356 77.6598 131.913 77.2922 131.261 77.0849C130.586 76.8704 129.974 76.915 129.424 77.2187C128.878 77.5109 128.483 78.0401 128.24 78.8063L126.494 84.2956L124.848 83.772ZM145.244 90.597C144.444 90.3425 143.796 89.9853 143.3 89.5254C142.804 89.0655 142.444 88.5544 142.219 87.992C141.999 87.4182 141.886 86.8221 141.881 86.2035C141.888 85.5886 141.984 84.9896 142.17 84.4063L142.268 84.0976C142.457 83.5029 142.726 82.9527 143.076 82.4468C143.437 81.9447 143.871 81.5287 144.379 81.1991C144.891 80.858 145.468 80.645 146.112 80.5602C146.771 80.4675 147.484 80.543 148.25 80.7866C149.245 81.1029 149.994 81.5802 150.496 82.2184C151.013 82.8487 151.319 83.5504 151.413 84.3233C151.519 85.0998 151.45 85.8712 151.206 86.6374L150.972 87.375L142.841 84.7898L143.234 83.5547L150.164 85.7581L149.574 86.3071C149.781 85.6553 149.856 85.0622 149.799 84.5279C149.746 83.9821 149.556 83.5123 149.228 83.1184C148.9 82.7244 148.421 82.4275 147.792 82.2275C147.14 82.0203 146.55 81.9962 146.021 82.1554C145.503 82.3182 145.054 82.6224 144.673 83.0679C144.303 83.5171 144.011 84.079 143.797 84.7537C143.59 85.4056 143.505 86.0272 143.544 86.6187C143.597 87.2024 143.798 87.7196 144.146 88.1701C144.497 88.6093 145.016 88.9379 145.702 89.1561C146.423 89.3852 147.057 89.4105 147.605 89.2321C148.164 89.0573 148.557 88.7729 148.783 88.3789L150.327 88.8697C150.001 89.4587 149.577 89.9219 149.054 90.2594C148.531 90.5968 147.945 90.7947 147.297 90.8531C146.649 90.9114 145.965 90.8261 145.244 90.597ZM55.4678 89.6252L59.4711 77.0342L60.7747 77.4487L59.5149 81.4113L59.217 81.2788C59.5869 80.3135 60.0473 79.5784 60.5981 79.0736C61.164 78.561 61.7859 78.2487 62.4636 78.1368C63.1414 78.0249 63.8234 78.0781 64.5095 78.2962C65.1728 78.5071 65.7332 78.8238 66.1907 79.2463C66.6596 79.6724 67.0194 80.1645 67.2701 80.7227C67.5207 81.2809 67.6581 81.8786 67.6821 82.5159C67.7062 83.1531 67.6164 83.7919 67.4128 84.4323L67.3146 84.7411C67.111 85.3815 66.8096 85.9531 66.4105 86.4558C66.0115 86.9585 65.5427 87.3635 65.0043 87.6708C64.4773 87.9818 63.8994 88.1758 63.2704 88.2528C62.653 88.3335 62.0183 88.2702 61.3665 88.063C60.7146 87.8557 60.1368 87.5146 59.633 87.0397C59.1293 86.5647 58.7848 85.9452 58.5996 85.1812C58.4144 84.4171 58.4586 83.5057 58.7323 82.4468L59.0508 84.0591L57.1146 90.1487L55.4678 89.6252ZM61.5673 86.5403C62.1848 86.7366 62.7678 86.7645 63.3161 86.6241C63.8681 86.4722 64.3516 86.1789 64.7669 85.7443C65.1857 85.2983 65.5024 84.7379 65.7169 84.0631C65.9351 83.377 66.0002 82.7366 65.9122 82.142C65.8242 81.5474 65.597 81.0344 65.2304 80.6031C64.8675 80.1603 64.3773 79.8408 63.7598 79.6444C63.2109 79.4699 62.662 79.4339 62.1131 79.5364C61.5679 79.6275 61.0778 79.862 60.6428 80.24C60.2229 80.6101 59.9093 81.1212 59.7021 81.773L59.4512 82.5621C59.2512 83.191 59.2233 83.774 59.3674 84.3109C59.5115 84.8478 59.7798 85.3108 60.1723 85.7001C60.5648 86.0893 61.0298 86.3694 61.5673 86.5403ZM73.9261 91.7163L74.7987 88.9717L74.5243 88.8844L75.5332 85.7109C75.7332 85.082 75.7183 84.5547 75.4885 84.129C75.2701 83.707 74.8464 83.396 74.2174 83.196C73.8629 83.0833 73.4951 82.9727 73.1141 82.8641C72.7331 82.7556 72.3692 82.6525 72.0225 82.5548C71.6758 82.4572 71.373 82.3798 71.1141 82.3227L71.5723 80.8818C71.8311 80.9389 72.0996 81.0054 72.3777 81.0812C72.6709 81.1492 72.9661 81.2305 73.2635 81.325C73.5644 81.4081 73.8522 81.4933 74.1266 81.5806C75.0644 81.8787 75.7942 82.2367 76.3162 82.6545C76.8417 83.0608 77.1675 83.5611 77.2934 84.1551C77.4193 84.7492 77.3459 85.4751 77.0732 86.3328L75.2298 92.1308L73.9261 91.7163ZM70.8478 91.002C70.1617 90.7838 69.6033 90.4804 69.1729 90.0917C68.7575 89.6952 68.4835 89.2303 68.3508 88.6971C68.2296 88.1674 68.269 87.5881 68.469 86.9591C68.6762 86.3073 68.9919 85.8095 69.4159 85.4659C69.8514 85.1259 70.3839 84.9363 71.0133 84.8972C71.6464 84.8466 72.3575 84.9468 73.1466 85.1977L75.6339 85.9885L75.2412 87.2236L72.6853 86.4109C72.022 86.2 71.4622 86.1983 71.0059 86.4058C70.5495 86.6133 70.2414 86.9686 70.0814 87.4718C69.9214 87.975 69.9696 88.4373 70.2259 88.8588C70.4823 89.2803 70.9421 89.5965 71.6054 89.8074C71.9942 89.931 72.3877 89.9806 72.7858 89.956C73.1876 89.9201 73.5556 89.7727 73.8897 89.5137C74.239 89.247 74.5196 88.82 74.7315 88.2326L74.9703 89.0262C74.7058 89.6599 74.3712 90.1579 73.9664 90.5203C73.5766 90.8748 73.1167 91.0938 72.5865 91.177C72.0678 91.264 71.4882 91.2056 70.8478 91.002ZM81.1669 94.3207C79.9661 93.9389 79.1159 93.3852 78.6162 92.6597C78.128 91.9379 78.0142 91.1273 78.275 90.228L79.8188 90.7189C79.729 91.0807 79.799 91.4744 80.0288 91.9C80.2737 92.3179 80.8021 92.6559 81.6141 92.914C82.346 93.1467 82.9518 93.182 83.4315 93.0197C83.9149 92.846 84.2238 92.5476 84.3583 92.1244C84.4783 91.747 84.4281 91.41 84.2076 91.1132C83.9908 90.8051 83.5731 90.5148 82.9545 90.2426L81.9923 89.8234C81.1523 89.4555 80.5251 88.9728 80.1107 88.3751C79.6999 87.7661 79.6182 87.0727 79.8654 86.295C80.0509 85.7118 80.3577 85.2616 80.7859 84.9445C81.2178 84.6159 81.7313 84.4266 82.3264 84.3765C82.9252 84.3151 83.5677 84.3934 84.2538 84.6116C85.283 84.9388 86.0451 85.433 86.5401 86.094C87.0351 86.7551 87.1504 87.5409 86.886 88.4517L85.3422 87.9608C85.4471 87.5912 85.3737 87.2279 85.1221 86.8709C84.8855 86.506 84.447 86.2218 83.8066 86.0182C83.1662 85.8146 82.6383 85.7916 82.2231 85.9492C81.8078 86.1067 81.5365 86.3857 81.4093 86.7859C81.3002 87.129 81.3273 87.4398 81.4906 87.7184C81.6653 88.0006 82.0123 88.2557 82.5316 88.4838L83.4938 88.903C84.4445 89.3187 85.1464 89.844 85.5992 90.4791C86.0557 91.1027 86.1567 91.8148 85.9022 92.6153C85.7204 93.1871 85.3928 93.6433 84.9193 93.9838C84.4609 94.3166 83.9059 94.5178 83.2541 94.5876C82.6059 94.646 81.9102 94.557 81.1669 94.3207ZM90.3636 97.2447C89.1628 96.8629 88.3126 96.3093 87.8129 95.5838C87.3247 94.8619 87.211 94.0514 87.4717 93.1521L89.0156 93.6429C88.9257 94.0047 88.9957 94.3984 89.2255 94.8241C89.4704 95.2419 89.9989 95.5799 90.8108 95.8381C91.5427 96.0708 92.1485 96.106 92.6282 95.9437C93.1116 95.77 93.4205 95.4716 93.5551 95.0485C93.6751 94.6711 93.6248 94.334 93.4044 94.0373C93.1876 93.7291 92.7699 93.4389 92.1513 93.1667L91.1891 92.7474C90.349 92.3796 89.7218 91.8969 89.3074 91.2992C88.8967 90.6901 88.8149 89.9967 89.0622 89.2191C89.2476 88.6359 89.5544 88.1857 89.9827 87.8685C90.4145 87.5399 90.928 87.3506 91.5232 87.3006C92.1219 87.2391 92.7644 87.3175 93.4505 87.5356C94.4798 87.8629 95.2419 88.357 95.7368 89.0181C96.2318 89.6791 96.3471 90.465 96.0827 91.3757L94.5389 90.8849C94.6438 90.5153 94.5704 90.152 94.3188 89.7949C94.0822 89.4301 93.6437 89.1459 93.0033 88.9423C92.3629 88.7386 91.8351 88.7156 91.4198 88.8732C91.0045 89.0308 90.7333 89.3097 90.606 89.71C90.4969 90.053 90.524 90.3639 90.6873 90.6424C90.862 90.9246 91.209 91.1798 91.7283 91.4078L92.6905 91.8271C93.6413 92.2427 94.3431 92.7681 94.7959 93.4031C95.2524 94.0268 95.3534 94.7388 95.0989 95.5393C94.9171 96.1111 94.5895 96.5673 94.1161 96.9079C93.6577 97.2406 93.1026 97.4419 92.4508 97.5117C91.8027 97.57 91.1069 97.4811 90.3636 97.2447ZM100.441 100.487C99.6409 100.232 98.9927 99.875 98.4967 99.4151C98.0007 98.9552 97.6407 98.444 97.4165 97.8817C97.196 97.3079 97.0834 96.7117 97.0786 96.0932C97.0852 95.4783 97.1812 94.8792 97.3666 94.296L97.4648 93.9872C97.6539 93.3926 97.9233 92.8423 98.273 92.3365C98.6341 91.8343 99.0686 91.4184 99.5763 91.0888C100.088 90.7477 100.665 90.5347 101.309 90.4499C101.968 90.3572 102.681 90.4327 103.447 90.6763C104.442 90.9926 105.191 91.4699 105.693 92.108C106.21 92.7384 106.516 93.4401 106.61 94.2129C106.716 94.9895 106.647 95.7608 106.403 96.527L106.169 97.2647L98.038 94.6795L98.4307 93.4444L105.361 95.6478L104.771 96.1968C104.978 95.545 105.053 94.9519 104.996 94.4176C104.943 93.8718 104.753 93.402 104.425 93.008C104.097 92.6141 103.618 92.3172 102.989 92.1172C102.337 91.9099 101.747 91.8859 101.218 92.0451C100.7 92.2079 100.251 92.512 99.8699 92.9576C99.5004 93.4067 99.2084 93.9687 98.9939 94.6434C98.7866 95.2952 98.7023 95.9169 98.7409 96.5084C98.7946 97.0921 98.9953 97.6092 99.3431 98.0598C99.6946 98.499 100.213 98.8276 100.9 99.0458C101.62 99.2748 102.254 99.3002 102.802 99.1218C103.361 98.947 103.754 98.6626 103.98 98.2686L105.524 98.7594C105.198 99.3484 104.774 99.8116 104.251 100.149C103.728 100.486 103.142 100.684 102.494 100.743C101.846 100.801 101.162 100.716 100.441 100.487ZM107.149 102.279L110.061 93.1192L111.365 93.5337L110.116 97.4619L109.91 97.3965C110.198 96.4931 110.559 95.7708 110.996 95.2296C111.448 94.6806 111.976 94.326 112.581 94.1658C113.189 93.9941 113.877 94.0301 114.643 94.2737L114.712 94.2955C115.867 94.6627 116.604 95.2939 116.924 96.1888C117.255 97.0875 117.205 98.2172 116.772 99.5781L115.108 104.81L113.462 104.286L115.234 98.7114C115.46 98.0024 115.439 97.3727 115.174 96.8223C114.912 96.2605 114.432 95.8687 113.734 95.6469C113.014 95.4178 112.36 95.4554 111.772 95.7596C111.184 96.0638 110.772 96.5875 110.536 97.3309L108.796 102.803L107.149 102.279ZM120.762 102.49L121.777 99.2994L122.96 99.6758C123.772 99.9339 124.442 99.9075 124.969 99.5966C125.507 99.2893 125.876 98.8211 126.076 98.1922C126.225 97.7233 126.255 97.2921 126.166 96.8987C126.081 96.4938 125.888 96.1492 125.588 95.865C125.304 95.5729 124.938 95.356 124.492 95.2142C123.978 95.0505 123.497 95.0174 123.051 95.1147C122.619 95.2042 122.242 95.3992 121.92 95.6997C121.602 95.9887 121.368 96.3677 121.219 96.8366L119.641 96.3348C119.855 95.6601 120.204 95.0784 120.686 94.5897C121.181 94.1046 121.789 93.7755 122.511 93.6022C123.234 93.429 124.047 93.486 124.95 93.7732C125.751 94.0278 126.384 94.4117 126.851 94.9252C127.332 95.4308 127.64 96.0072 127.774 96.6543C127.923 97.2936 127.894 97.9392 127.687 98.591L127.622 98.7968C127.418 99.4373 127.076 99.9771 126.597 100.416C126.117 100.856 125.518 101.137 124.798 101.261C124.094 101.377 123.296 101.293 122.404 101.01L123.272 100.417L122.409 103.014L120.762 102.49ZM119.402 106.175L120.067 104.082L122.057 104.715L121.392 106.808L119.402 106.175Z" fill="#333333"/>
</svg>
